<?xml version="1.0" standalone="no"?>
<!DOCTYPE svg PUBLIC "-//W3C//DTD SVG 20010904//EN"
 "http://www.w3.org/TR/2001/REC-SVG-20010904/DTD/svg10.dtd">
<svg version="1.0" xmlns="http://www.w3.org/2000/svg"
 width="500.000000pt" height="500.000000pt" viewBox="0 0 500.000000 500.000000"
 preserveAspectRatio="xMidYMid meet">

<g transform="translate(0.000000,500.000000) scale(0.100000,-0.100000)"
fill="#000000" stroke="none">
<path d="M0 2500 l0 -2500 2500 0 2500 0 0 2500 0 2500 -2500 0 -2500 0 0
-2500z m985 1238 c74 -21 140 -51 150 -68 5 -8 -71 -167 -90 -188 -1 -2 -18 6
-36 17 -54 31 -147 54 -197 48 -77 -8 -123 -83 -81 -133 7 -9 75 -47 150 -83
154 -76 210 -116 250 -179 l28 -45 3 124 3 124 108 3 107 3 0 -36 c0 -38 10
-44 31 -18 30 35 111 63 184 62 114 0 194 -40 255 -127 19 -26 35 -49 37 -51
1 -2 13 9 25 25 42 54 83 86 148 118 62 29 71 31 185 31 108 0 125 -3 175 -26
69 -32 125 -80 161 -138 l28 -44 3 99 3 99 110 0 110 0 5 -43 5 -43 34 35 c52
54 105 70 201 62 l80 -6 0 115 0 115 110 0 110 0 0 -115 0 -114 68 -3 67 -3 3
-87 3 -88 -71 0 -70 0 0 -109 c0 -156 19 -196 83 -172 26 10 27 10 52 -74 15
-47 23 -89 20 -95 -9 -15 -103 -40 -149 -40 -93 0 -159 38 -199 114 -19 36
-22 60 -25 209 l-4 167 -25 0 c-14 0 -31 -7 -37 -15 -10 -13 -16 -13 -51 0
-56 20 -105 18 -143 -5 -54 -33 -62 -66 -62 -270 l0 -180 -115 0 -115 0 0 97
0 97 -28 -45 c-37 -58 -82 -95 -162 -133 -60 -29 -73 -31 -175 -31 -95 0 -118
4 -171 26 -72 30 -125 70 -161 122 l-26 37 -19 -32 c-32 -53 -79 -98 -133
-126 -42 -22 -63 -26 -136 -27 -77 0 -92 3 -147 32 l-62 31 -2 -186 -3 -187
-112 -3 -113 -3 0 268 0 267 -26 -52 c-39 -79 -113 -130 -226 -157 -133 -31
-275 -12 -404 54 -128 66 -124 54 -58 162 31 52 58 96 60 98 2 2 26 -11 54
-29 115 -74 212 -96 287 -65 45 19 62 41 63 81 0 51 -33 80 -167 145 -194 95
-257 169 -258 304 0 121 66 220 184 276 89 42 188 44 316 7z m3105 -1294 l0
-246 28 18 c59 39 90 49 164 52 99 5 162 -15 226 -73 26 -24 61 -69 77 -102
27 -53 30 -67 30 -158 0 -87 -3 -107 -26 -156 -33 -69 -96 -134 -156 -161 -98
-43 -220 -32 -299 28 l-44 34 0 -35 0 -35 -110 0 -110 0 0 540 0 540 110 0
110 0 0 -246z m-1530 -4 l0 -210 165 0 165 0 2 208 3 207 118 3 117 3 0 -521
0 -520 -120 0 -120 0 0 210 0 210 -165 0 -165 0 0 -210 0 -210 -120 0 -120 0
0 520 0 520 120 0 120 0 0 -210z m810 -363 c0 -193 6 -236 41 -273 45 -48 159
-37 191 18 9 16 14 84 18 228 l5 205 110 0 110 0 3 -185 c3 -208 -8 -295 -44
-358 -50 -85 -183 -130 -354 -119 -110 7 -188 36 -234 87 -57 63 -66 112 -66
362 l0 218 110 0 110 0 0 -183z"/>
<path d="M1450 3158 c-48 -32 -72 -82 -67 -139 5 -60 36 -102 89 -124 154 -61
276 120 164 243 -29 32 -40 36 -92 40 -50 3 -65 0 -94 -20z"/>
<path d="M2162 3160 c-66 -41 -86 -134 -45 -213 20 -39 93 -71 145 -64 85 11
131 70 125 160 -3 51 -8 62 -40 94 -32 32 -43 37 -94 40 -46 3 -65 0 -91 -17z"/>
<path d="M4156 2061 c-51 -34 -69 -74 -64 -141 3 -46 10 -66 29 -86 28 -31 77
-54 116 -54 40 0 106 36 126 69 21 36 22 121 2 161 -34 65 -146 93 -209 51z"/>
</g>
</svg>
